<svg width="246" height="262" viewBox="0 0 246 262" fill="none" xmlns="http://www.w3.org/2000/svg">
<path d="M221.351 208.809H205.056V208.94H221.351V208.809Z" fill="#EBEBEB"/>
<path d="M162.96 210.234H158.685V210.365H162.96V210.234Z" fill="#EBEBEB"/>
<path d="M204.564 203.946H195.122V204.077H204.564V203.946Z" fill="#EBEBEB"/>
<path d="M47.0598 204.826H25.8103V204.957H47.0598V204.826Z" fill="#EBEBEB"/>
<path d="M54.5579 204.826H51.4435V204.957H54.5579V204.826Z" fill="#EBEBEB"/>
<path d="M110.774 207.038H64.6832V207.169H110.774V207.038Z" fill="#EBEBEB"/>
<path d="M116.604 177.007H21.6037C20.8595 177.006 20.1462 176.69 19.6204 176.129C19.0946 175.568 18.7993 174.808 18.7993 174.015V31.7858C18.8058 30.9977 19.104 30.2442 19.629 29.6889C20.1541 29.1335 20.8637 28.8213 21.6037 28.8199H116.604C117.349 28.8199 118.064 29.1352 118.59 29.6963C119.117 30.2574 119.413 31.0184 119.413 31.812V174.015C119.413 174.809 119.117 175.57 118.59 176.131C118.064 176.692 117.349 177.007 116.604 177.007ZM21.6037 28.9247C20.8921 28.9261 20.2101 29.2282 19.7074 29.7646C19.2047 30.301 18.9223 31.0279 18.9223 31.7858V174.015C18.9223 174.773 19.2047 175.5 19.7074 176.036C20.2101 176.573 20.8921 176.875 21.6037 176.876H116.604C117.316 176.875 117.999 176.573 118.502 176.037C119.006 175.5 119.289 174.773 119.29 174.015V31.7858C119.289 31.0274 119.006 30.3005 118.502 29.7643C117.999 29.228 117.316 28.9261 116.604 28.9247H21.6037Z" fill="#EBEBEB"/>
<path d="M223.029 177.007H128.023C127.279 177.006 126.565 176.69 126.038 176.129C125.512 175.568 125.215 174.808 125.214 174.015V31.7858C125.222 30.9972 125.521 30.2437 126.047 29.6885C126.573 29.1334 127.283 28.8213 128.023 28.8199H223.029C223.768 28.8227 224.476 29.1355 225 29.6907C225.524 30.2459 225.822 30.9986 225.828 31.7858V174.015C225.828 174.807 225.533 175.566 225.009 176.127C224.484 176.688 223.772 177.004 223.029 177.007ZM128.023 28.9247C127.311 28.9261 126.629 29.228 126.125 29.7643C125.622 30.3005 125.338 31.0274 125.337 31.7858V174.015C125.338 174.773 125.622 175.5 126.125 176.037C126.629 176.573 127.311 176.875 128.023 176.876H223.029C223.741 176.875 224.423 176.573 224.927 176.037C225.43 175.5 225.714 174.773 225.715 174.015V31.7858C225.714 31.0274 225.43 30.3005 224.927 29.7643C224.423 29.228 223.741 28.9261 223.029 28.9247H128.023Z" fill="#EBEBEB"/>
<path d="M246 200.378H0V200.509H246V200.378Z" fill="#EBEBEB"/>
<path d="M170.891 154.62C197.341 126.45 197.341 80.7777 170.891 52.6077C144.442 24.4377 101.558 24.4377 75.1086 52.6077C48.6589 80.7777 48.6589 126.45 75.1086 154.62C101.558 182.79 144.442 182.79 170.891 154.62Z" fill="#E6E6E6"/>
<path d="M132.068 36.68L140.604 42.1349V50.828C140.604 50.828 134.129 49.8848 132.068 46.112C132.068 46.112 133.834 45.3155 128.825 42.1349C123.817 38.9542 124.998 35.108 132.068 36.68Z" fill="#FAFAFA"/>
<path d="M127.354 105.701L122.434 108.211C122.434 108.211 120.958 111.245 121.258 111.14C121.558 111.036 120.181 117.428 120.471 117.517C120.761 117.607 117.627 120.342 117.627 120.342L116.151 124.209V128.705L123.241 138.949L128.422 142.093L123.905 168.435L125.77 169.168L149.327 150.765L150.896 146.275L157.868 143.345L161.597 132.996L165.819 127.756C165.819 127.756 166.212 122.516 165.819 122.637C165.425 122.757 163.56 123.47 163.56 123.47L160.028 120.646C160.028 120.646 152.569 119.184 152.156 119.598C151.743 120.012 150.591 114.735 150.591 114.735L143.703 112.697L136.535 107.677L131.334 108.725L127.354 105.701Z" fill="#FAFAFA"/>
<path d="M113.991 92.748H117.785L123.197 95.761L133.273 98.4492L133.765 99.3085L123.777 99.1408L125.627 97.9094L124.151 96.9034L120.127 96.8038L120.619 96.2798L116.456 94.0109C116.456 94.0109 113.849 93.3506 113.75 93.665L112.668 93.8065L113.991 92.748Z" fill="#FAFAFA"/>
<path d="M121.795 99.3242L120.875 98.3705L119.369 98.4491L119.994 99.3242H121.795Z" fill="#FAFAFA"/>
<path d="M145.632 36.6799H144.456L152.845 42.0352L154.173 43.5601L162.419 48.6219L164.018 50.8279L165.342 55.6907L169.77 59.453L167.708 61.025L172.421 67.313H174.04L174.63 64.803L171.093 56.943L176.013 59.8669C176.013 59.8669 165.489 42.4439 145.632 36.6799Z" fill="#FAFAFA"/>
<path d="M180.141 65.5576H178.867L176.741 62.576L174.473 69.168C174.473 69.168 175.875 76.8551 175.983 77.3267C176.092 77.7983 175.354 78.8987 175.354 78.8987L175.983 87.3665L177.612 90.3376L178.862 97.5478L184.411 105.701L188.928 98.8473L189.661 100.529C189.661 100.529 190.404 83.1221 180.141 65.5576Z" fill="#FAFAFA"/>
<path d="M147.083 43.5653H145.612V45.4831L147.083 46.4263H148.412V44.9958L147.083 43.5653Z" fill="#FAFAFA"/>
<path d="M156.067 47.3644L158.276 49.8743L158.862 51.9808L161.071 54.2655L161.957 52.8559L163.575 54.2655V52.6987L162.399 50.8175L156.067 47.3644Z" fill="#FAFAFA"/>
<path d="M140.609 63.9909C140.609 63.9909 130.277 68.0676 126.469 70.5776C122.661 73.0876 123.261 78.4376 123.261 78.4376L117.047 82.1737L118.523 89.3892L117.047 90.3272L114.69 84.364C114.69 84.364 106.444 83.1117 103 83.7405C99.5562 84.3693 98.7887 91.6005 98.7887 91.6005L100.86 97.5479L105.573 97.8623L106.164 94.4144L111.167 94.7235L107.93 101.31L113.834 102.253L114.41 106.88L120.314 111.664C120.314 111.664 121.49 113.236 120.314 113.86C119.138 114.484 91.1578 96.6099 88.5059 92.2188C85.854 87.8277 82.4445 75.7495 85.116 67.2816C87.271 60.4015 91.266 54.0454 92.5354 49.8848L92.5797 49.7434C92.6192 49.6308 92.6505 49.5152 92.6731 49.3975C93.0323 47.7626 91.8121 46.7251 90.8577 46.4369C89.8294 46.1225 87.9057 47.3801 87.9057 47.3801H84.132L88.0336 45.0064L89.6572 43.1829L90.6855 42.203L94.5132 40.479L94.3705 39.2214C98.4886 36.7115 101.583 36.3185 101.583 36.3185L98.7838 38.5926H101.736L102.336 42.1349H108.24C108.24 42.1349 106.764 41.7209 110.302 39.6459C113.839 37.5708 125.293 36.68 125.293 36.68L121.76 42.1349L129.396 46.7408L128.51 50.1888L123.241 48.6168V46.7408L119.974 44.6448L119.679 48.3128L118.503 49.8848L117.027 48.6325L112.875 53.0236L120.255 60.6897L121.465 50.828L132.068 53.338L140.609 63.9909Z" fill="#FAFAFA"/>
<path d="M51.0931 64.0809C52.7359 56.6676 48.4251 49.2396 41.4646 47.4899C34.504 45.7402 27.5296 50.3315 25.8868 57.7447C24.244 65.158 28.5548 72.586 35.5153 74.3357C42.4759 76.0854 49.4503 71.4941 51.0931 64.0809Z" fill="#FAFAFA"/>
<path d="M45.4594 71.8426C49.5665 70.0308 51.5168 65.0161 49.8156 60.642C48.1144 56.2678 43.4059 54.1906 39.2989 56.0025C35.1919 57.8143 33.2416 62.829 34.9428 67.2032C36.6439 71.5773 41.3524 73.6545 45.4594 71.8426Z" fill="#EBEBEB"/>
<path d="M43.6109 68.4816C45.5727 68.4816 47.1631 66.7878 47.1631 64.6983C47.1631 62.6089 45.5727 60.915 43.6109 60.915C41.649 60.915 40.0587 62.6089 40.0587 64.6983C40.0587 66.7878 41.649 68.4816 43.6109 68.4816Z" fill="#E0E0E0"/>
<path d="M44.0045 58.4469C44.0045 59.0594 43.8339 59.6582 43.5144 60.1675C43.1949 60.6767 42.7408 61.0737 42.2095 61.308C41.6782 61.5424 41.0935 61.6038 40.5295 61.4843C39.9654 61.3648 39.4473 61.0698 39.0407 60.6367C38.634 60.2036 38.3571 59.6518 38.2449 59.0511C38.1327 58.4504 38.1903 57.8277 38.4104 57.2618C38.6304 56.696 39.0031 56.2123 39.4813 55.872C39.9595 55.5317 40.5217 55.3501 41.0967 55.3501C41.8679 55.3501 42.6075 55.6764 43.1528 56.2571C43.6981 56.8379 44.0045 57.6256 44.0045 58.4469Z" fill="white"/>
<path d="M184.431 48.2866L199.137 36.5333L201.813 43.2248L187.068 54.8524L184.431 48.2866Z" fill="#F5F5F5"/>
<path d="M184.397 48.2656C184.411 48.285 184.43 48.2997 184.452 48.308C184.474 48.3164 184.497 48.318 184.52 48.3128C184.533 48.3156 184.546 48.3156 184.559 48.3128L186.124 47.0656L186.684 48.4857L185.085 49.759C185.061 49.7788 185.045 49.8079 185.04 49.8402C185.036 49.8724 185.043 49.9053 185.061 49.9319C185.075 49.9513 185.094 49.966 185.116 49.9744C185.138 49.9827 185.161 49.9843 185.184 49.9791H185.223L186.778 48.7424L187.339 50.1677L185.75 51.4201C185.729 51.4443 185.717 51.4761 185.717 51.5092C185.717 51.5422 185.729 51.574 185.75 51.5982C185.763 51.6184 185.783 51.6333 185.805 51.6409C185.827 51.6484 185.851 51.6482 185.873 51.6402C185.873 51.6402 185.897 51.6402 185.912 51.6402L187.452 50.3616L188.008 51.7816L186.438 53.0235C186.418 53.0414 186.404 53.0659 186.399 53.0932C186.393 53.1205 186.396 53.1491 186.407 53.1743C186.419 53.1995 186.438 53.2201 186.461 53.2326C186.484 53.2452 186.511 53.249 186.537 53.2436C186.55 53.2484 186.564 53.2484 186.576 53.2436L188.101 52.0384L188.662 53.4637L187.103 54.6898C187.078 54.7096 187.062 54.7387 187.058 54.771C187.053 54.8033 187.06 54.8362 187.078 54.8628C187.091 54.8832 187.111 54.8987 187.133 54.9072C187.155 54.9156 187.179 54.9166 187.201 54.9099C187.214 54.9128 187.227 54.9128 187.24 54.9099L195.181 48.6586L196.898 51.0742C196.913 51.0936 196.932 51.1083 196.954 51.1167C196.975 51.125 196.999 51.1267 197.021 51.1214C197.034 51.1242 197.048 51.1242 197.061 51.1214C197.073 51.1121 197.084 51.1001 197.092 51.0862C197.1 51.0723 197.106 51.0568 197.108 51.0406C197.11 51.0244 197.109 51.0079 197.106 50.9921C197.102 50.9762 197.095 50.9614 197.085 50.9485L195.368 48.5328L201.902 43.3924C201.927 43.373 201.945 43.3435 201.95 43.3106C201.955 43.2777 201.947 43.244 201.929 43.2169C201.911 43.1898 201.883 43.1715 201.852 43.1661C201.821 43.1607 201.79 43.1686 201.764 43.188L200.155 44.4561L199.565 42.968L201.228 41.6527C201.244 41.6447 201.257 41.633 201.268 41.6187C201.279 41.6044 201.287 41.5876 201.291 41.5697C201.295 41.5518 201.296 41.5331 201.292 41.515C201.289 41.497 201.282 41.4799 201.271 41.465C201.261 41.4502 201.248 41.4379 201.233 41.4291C201.218 41.4203 201.201 41.4152 201.183 41.4141C201.166 41.413 201.149 41.416 201.133 41.4228C201.117 41.4296 201.102 41.4401 201.09 41.4536L199.486 42.7164L198.916 41.2807L200.559 39.9812C200.572 39.9713 200.582 39.9589 200.591 39.9445C200.599 39.9302 200.604 39.9142 200.606 39.8976C200.609 39.881 200.608 39.8641 200.604 39.8478C200.6 39.8316 200.593 39.8163 200.583 39.803C200.561 39.782 200.532 39.7704 200.502 39.7704C200.472 39.7704 200.444 39.782 200.421 39.803L198.822 41.0711L198.251 39.6301L199.89 38.3306C199.905 38.3225 199.919 38.3109 199.93 38.2965C199.941 38.2822 199.949 38.2655 199.953 38.2476C199.957 38.2296 199.957 38.211 199.954 38.1929C199.951 38.1748 199.943 38.1577 199.933 38.1429C199.923 38.128 199.91 38.1157 199.894 38.1069C199.879 38.0981 199.862 38.093 199.845 38.0919C199.828 38.0908 199.811 38.0938 199.794 38.1006C199.778 38.1075 199.764 38.118 199.752 38.1314L198.158 39.3943L197.587 37.9585L199.221 36.659C199.233 36.6492 199.244 36.6367 199.252 36.6224C199.261 36.608 199.266 36.5921 199.268 36.5754C199.27 36.5588 199.27 36.5419 199.266 36.5257C199.262 36.5094 199.255 36.4942 199.245 36.4808C199.223 36.4587 199.194 36.4464 199.164 36.4464C199.134 36.4464 199.105 36.4587 199.083 36.4808L197.454 37.728C197.439 37.7201 197.422 37.716 197.405 37.716C197.388 37.716 197.371 37.7201 197.356 37.728C197.332 37.7399 197.313 37.7596 197.301 37.7841C197.288 37.8086 197.283 37.8367 197.287 37.8642L195.201 39.5253C195.187 39.5175 195.171 39.5134 195.154 39.5134C195.138 39.5134 195.122 39.5175 195.108 39.5253C195.083 39.5366 195.064 39.5561 195.051 39.5808C195.039 39.6055 195.034 39.6339 195.039 39.6615L192.953 41.3226C192.923 41.3095 192.889 41.3095 192.859 41.3226C192.836 41.3337 192.817 41.3524 192.804 41.376C192.792 41.3996 192.787 41.4268 192.79 41.4536L190.699 43.1199C190.685 43.1121 190.669 43.108 190.652 43.108C190.636 43.108 190.62 43.1121 190.606 43.1199C190.583 43.13 190.564 43.1478 190.551 43.1705C190.539 43.1932 190.534 43.2196 190.537 43.2457L188.436 44.8858C188.422 44.8795 188.407 44.8762 188.392 44.8762C188.377 44.8762 188.361 44.8795 188.347 44.8858C188.325 44.8959 188.306 44.9137 188.293 44.9364C188.281 44.9591 188.276 44.9855 188.279 45.0116L186.188 46.6779C186.159 46.6675 186.128 46.6675 186.099 46.6779C186.076 46.688 186.057 46.7057 186.045 46.7284C186.032 46.7511 186.027 46.7776 186.03 46.8036L184.411 48.0927C184.4 48.1028 184.39 48.1154 184.383 48.1297C184.375 48.144 184.371 48.1597 184.37 48.1758C184.368 48.1919 184.37 48.2082 184.375 48.2237C184.379 48.2391 184.387 48.2534 184.397 48.2656ZM190.443 49.8376L189.878 48.4123L191.944 46.7774L192.505 48.208L190.443 49.8376ZM192.598 48.4438L193.164 49.8743L191.098 51.4987L190.532 50.0734L192.598 48.4438ZM194.955 46.2744L194.389 44.8386L196.451 43.209L197.021 44.6448L194.955 46.2744ZM197.115 44.8753L197.686 46.3111L195.619 47.9407L195.048 46.5102L197.115 44.8753ZM192.042 46.3897L191.477 44.9644L193.538 43.3243L194.104 44.76L192.042 46.3897ZM191.388 44.7338L190.822 43.3086L192.864 41.6684L193.43 43.099L191.388 44.7338ZM193.076 41.5165L195.132 39.8764L195.703 41.3121L193.636 42.968L193.076 41.5165ZM195.796 41.5479L196.357 42.968L194.296 44.5976L193.73 43.1671L195.796 41.5479ZM194.768 46.4368L194.217 46.8718L193.356 45.6718L194.197 45.0063L194.768 46.4368ZM194.03 47.0185L192.702 48.0665L192.136 46.636L193.169 45.8185L194.03 47.0185ZM189.784 48.208L189.223 46.7827L191.285 45.1478L191.85 46.5731L189.784 48.208ZM189.13 46.5469L188.569 45.1216L190.625 43.4815L191.191 44.912L189.13 46.5469ZM197.951 39.5462L195.89 41.1811L195.324 39.7244L197.385 38.0843L197.951 39.5462ZM198.615 41.2178L196.554 42.8527L195.983 41.396L198.045 39.7611L198.615 41.2178ZM199.26 42.8684L197.194 44.498L196.628 43.0675L198.689 41.4326L199.26 42.8684ZM199.924 44.5452L197.858 46.1696L197.292 44.7338L199.358 43.1042L199.924 44.5452ZM195.186 48.2708L194.34 47.0709L194.832 46.6726L195.398 48.1032L195.186 48.2708ZM194.999 48.4228L193.356 49.7276L192.79 48.3023L194.163 47.2176L194.999 48.4228ZM188.279 51.876L190.34 50.2463L190.896 51.6611L188.83 53.2908L188.279 51.876ZM187.624 50.2201L189.686 48.5852L190.247 50.0105L188.185 51.6402L187.624 50.2201ZM186.96 48.5486L189.021 46.9137L189.582 48.339L187.521 49.9738L186.96 48.5486ZM186.306 46.8927L188.367 45.2526L188.928 46.6779L186.867 48.3128L186.306 46.8927Z" fill="#E6E6E6"/>
<path d="M206.121 57.3935C207.86 53.8584 206.579 49.4914 203.26 47.6394C199.941 45.7874 195.84 47.1517 194.101 50.6868C192.363 54.2218 193.644 58.5889 196.963 60.4409C200.282 62.2929 204.382 60.9285 206.121 57.3935Z" fill="#FAFAFA"/>
<path d="M201.716 56.9796C202.636 54.701 201.647 52.0599 199.507 51.0805C197.368 50.1011 194.888 51.1542 193.969 53.4328C193.049 55.7113 194.038 58.3524 196.177 59.3319C198.317 60.3113 200.796 59.2581 201.716 56.9796Z" fill="#EBEBEB"/>
<path d="M198.202 57.1121C199.047 56.4896 199.258 55.2557 198.673 54.3562C198.088 53.4567 196.93 53.2323 196.085 53.8549C195.241 54.4775 195.03 55.7113 195.615 56.6108C196.199 57.5103 197.358 57.7347 198.202 57.1121Z" fill="#E0E0E0"/>
<path d="M197.494 52.2271C197.439 52.5433 197.474 52.8696 197.594 53.1648C197.713 53.46 197.912 53.7107 198.166 53.8852C198.419 54.0597 198.716 54.1501 199.018 54.1451C199.319 54.1401 199.613 54.0397 199.861 53.8569C200.11 53.674 200.301 53.4168 200.412 53.1177C200.523 52.8187 200.548 52.4914 200.484 52.1772C200.421 51.863 200.271 51.576 200.054 51.3526C199.836 51.1293 199.562 50.9795 199.265 50.9224C198.868 50.8459 198.458 50.9403 198.126 51.1849C197.794 51.4295 197.567 51.8043 197.494 52.2271Z" fill="white"/>
<path d="M205.085 61.5333H205.125C205.149 61.5135 205.165 61.4844 205.17 61.4521C205.174 61.4199 205.167 61.387 205.149 61.3604L202.96 58.2845C202.94 58.2644 202.914 58.2524 202.886 58.2507C202.858 58.249 202.831 58.2576 202.809 58.275C202.787 58.2924 202.771 58.3176 202.764 58.3461C202.758 58.3747 202.761 58.4048 202.773 58.4312L204.962 61.5071C204.979 61.5228 204.999 61.5335 205.02 61.5382C205.042 61.5428 205.064 61.5411 205.085 61.5333Z" fill="#E0E0E0"/>
<path d="M212.48 53.6891L215.23 60.1867L200.485 72.0553L197.691 65.5367L212.48 53.6891Z" fill="#F5F5F5"/>
<path d="M197.73 65.5C197.744 65.5193 197.763 65.534 197.785 65.5424C197.807 65.5507 197.83 65.5524 197.853 65.5471H197.892L199.422 64.321L200.018 65.7096L198.419 66.9881C198.394 67.0088 198.378 67.0388 198.373 67.072C198.369 67.1051 198.376 67.1389 198.394 67.1663C198.408 67.1864 198.427 67.2014 198.449 67.2089C198.471 67.2165 198.495 67.2162 198.517 67.2082C198.532 67.2122 198.547 67.2122 198.561 67.2082L200.121 65.9611L200.716 67.3497L199.083 68.6544C199.062 68.6787 199.05 68.7105 199.05 68.7435C199.05 68.7766 199.062 68.8084 199.083 68.8326C199.096 68.8527 199.116 68.8677 199.138 68.8752C199.16 68.8828 199.184 68.8825 199.206 68.8745C199.206 68.8745 199.206 68.8745 199.245 68.8745L200.834 67.6064L201.43 68.995L199.752 70.2579C199.732 70.2758 199.718 70.3003 199.712 70.3276C199.707 70.3549 199.71 70.3834 199.721 70.4087C199.732 70.4339 199.751 70.4544 199.774 70.467C199.798 70.4795 199.825 70.4834 199.85 70.478H199.89L201.513 69.1837L202.069 70.4832C202.076 70.498 202.086 70.5112 202.098 70.522C202.11 70.5328 202.123 70.541 202.138 70.5461L200.416 71.9242C200.392 71.944 200.376 71.9731 200.371 72.0054C200.366 72.0376 200.374 72.0705 200.392 72.0971C200.406 72.1165 200.425 72.1312 200.447 72.1395C200.468 72.1479 200.492 72.1495 200.515 72.1443H200.559L215.265 60.3857C215.286 60.3624 215.297 60.3314 215.297 60.2993C215.297 60.2671 215.286 60.2362 215.265 60.2128C215.242 60.1918 215.213 60.1802 215.184 60.1802C215.154 60.1802 215.125 60.1918 215.102 60.2128L213.528 61.4128L212.938 60.0451L214.591 58.7194C214.603 58.71 214.614 58.6981 214.622 58.6842C214.63 58.6703 214.636 58.6548 214.638 58.6386C214.64 58.6224 214.639 58.6059 214.636 58.5901C214.632 58.5742 214.625 58.5594 214.615 58.5465C214.593 58.5244 214.564 58.512 214.534 58.512C214.504 58.512 214.475 58.5244 214.453 58.5465L212.839 59.8355L212.244 58.4469L213.927 57.1002C213.939 57.0904 213.95 57.0779 213.958 57.0636C213.966 57.0492 213.972 57.0333 213.974 57.0167C213.976 57.0001 213.976 56.9832 213.972 56.9669C213.968 56.9507 213.961 56.9354 213.951 56.9221C213.929 56.9 213.9 56.8876 213.87 56.8876C213.84 56.8876 213.811 56.9 213.789 56.9221L212.15 58.164L211.56 56.7806L213.277 55.413C213.298 55.3896 213.309 55.3587 213.309 55.3265C213.309 55.2943 213.298 55.2634 213.277 55.24C213.267 55.2285 213.254 55.2193 213.24 55.213C213.226 55.2067 213.211 55.2035 213.196 55.2035C213.181 55.2035 213.166 55.2067 213.152 55.213C213.138 55.2193 213.125 55.2285 213.115 55.24L211.442 56.5762L210.847 55.1876L212.588 53.7938C212.607 53.7724 212.618 53.7446 212.62 53.7152C212.622 53.6859 212.614 53.6569 212.597 53.6332C212.581 53.6095 212.557 53.5927 212.53 53.5857C212.504 53.5787 212.475 53.5818 212.451 53.5947L197.745 65.3532C197.727 65.3725 197.716 65.3974 197.714 65.4239C197.711 65.4505 197.717 65.4772 197.73 65.5ZM205.405 63.5612L204.805 62.1726L206.866 60.5272L207.462 61.921L205.405 63.5612ZM207.56 62.1516L208.155 63.5402L206.099 65.1856L205.503 63.797L207.56 62.1516ZM204.706 61.942L204.111 60.5534L206.168 58.908L206.763 60.2966L204.706 61.942ZM206.36 58.7561L208.416 57.1107L209.011 58.4993L206.955 60.1447L206.36 58.7561ZM209.11 58.7561L209.71 60.1499L207.654 61.79L207.053 60.4014L209.11 58.7561ZM209.808 60.3805L210.404 61.7691L208.347 63.404L207.752 62.0154L209.808 60.3805ZM210.502 61.9996L211.068 63.3149C211.079 63.3402 211.098 63.3606 211.122 63.3725L209.036 65.0388C209.038 65.0267 209.038 65.0143 209.036 65.0022L208.451 63.645L210.502 61.9996ZM208.874 65.1436L206.788 66.81C206.79 66.7979 206.79 66.7853 206.788 66.7733L206.202 65.4161L208.259 63.7708L208.824 65.0808C208.834 65.1068 208.851 65.1288 208.874 65.1436ZM206.64 66.9357L204.549 68.6073C204.554 68.5938 204.554 68.5788 204.549 68.5654L203.968 67.2134L206.025 65.5681L206.591 66.8728C206.595 66.8863 206.601 66.8988 206.609 66.9096C206.618 66.9204 206.628 66.9293 206.64 66.9357ZM203.86 66.9829L203.265 65.5943L205.312 63.928L205.907 65.3166L203.86 66.9829ZM203.166 65.3585L202.566 63.9699L204.628 62.3245L205.223 63.7184L203.166 65.3585ZM202.468 63.7393L201.863 62.356L203.919 60.7106L204.515 62.0992L202.468 63.7393ZM211.27 56.702L209.213 58.3474L208.608 56.9588L210.665 55.3134L211.27 56.702ZM211.968 58.3264L209.912 59.9665L209.312 58.5779L211.368 56.9326L211.968 58.3264ZM212.662 59.9456L210.576 61.5909L209.981 60.2023L212.037 58.557L212.662 59.9456ZM213.375 61.549L211.299 63.2153C211.299 63.2153 211.299 63.2153 211.299 63.1839L210.714 61.8215L212.77 60.1761L213.336 61.4914C213.342 61.5128 213.352 61.5325 213.366 61.549H213.375ZM201.72 69.0108L203.781 67.3654L204.337 68.6702C204.351 68.6987 204.374 68.7211 204.401 68.733L202.31 70.4046C202.313 70.389 202.313 70.3731 202.31 70.3574L201.72 69.0108ZM201.026 67.3916L203.083 65.7462L203.678 67.1348L201.622 68.7802L201.026 67.3916ZM200.333 65.7672L202.389 64.1218L202.984 65.5157L200.928 67.1558L200.333 65.7672ZM199.634 64.148L201.69 62.5027L202.286 63.8913L200.229 65.5366L199.634 64.148Z" fill="#E6E6E6"/>
<path d="M123 223.753C175.685 223.753 218.394 221.098 218.394 217.822C218.394 214.546 175.685 211.89 123 211.89C70.3154 211.89 27.6061 214.546 27.6061 217.822C27.6061 221.098 70.3154 223.753 123 223.753Z" fill="#F5F5F5"/>
<path opacity="0.3" d="M47.1779 114.201V114.049C47.1754 114.099 47.1754 114.15 47.1779 114.201Z" fill="black"/>
<path d="M98.2573 123.842C98.2573 123.842 77.5589 95.8554 63.6894 96.5942C49.8199 97.333 28.4524 123.208 28.4524 123.208C28.4524 123.208 63.7435 142.219 98.2573 123.842Z" fill="#3EA2FF"/>
<path opacity="0.9" d="M98.2573 123.842C98.2573 123.842 77.5589 95.8554 63.6894 96.5942C49.8199 97.333 28.4524 123.208 28.4524 123.208C28.4524 123.208 63.7435 142.219 98.2573 123.842Z" fill="#FAFAFA"/>
<path d="M95.94 124.985C95.3004 125.257 94.5427 125.509 93.7063 125.844C93.2832 126.001 92.8404 126.179 92.3681 126.368L90.8921 126.845L89.2586 127.369L87.4776 127.846C86.2525 128.202 84.9143 128.459 83.5022 128.768C82.7987 128.93 82.0607 129.025 81.3128 129.161C80.565 129.297 79.7926 129.423 78.9955 129.512C71.5268 130.46 63.9731 130.352 56.5308 129.192C52.0953 128.521 47.7043 127.549 43.3846 126.284C41.141 125.629 38.868 124.89 36.595 124.047C35.4535 123.633 34.317 123.177 33.1805 122.71L32.3293 122.349H32.285H32.3096L32.472 122.092C29.6824 123.213 27.616 123.544 26.1301 123.528L25.9727 123.716C27.0846 124.24 28.167 124.801 29.2986 125.325L30.9714 126.053L31.8668 126.42C33.0673 126.887 34.258 127.337 35.4486 127.746C37.8266 128.567 40.1882 129.28 42.5334 129.884C47.017 131.051 51.573 131.875 56.1667 132.352C63.872 133.194 71.6511 132.841 79.2612 131.304C80.0681 131.157 80.8454 130.963 81.6031 130.78C82.3608 130.597 83.0791 130.424 83.8073 130.204C85.2193 129.774 86.5526 129.402 87.7679 128.93L89.5342 128.291L91.143 127.62L92.619 126.997C93.0815 126.792 93.5144 126.567 93.9228 126.368C94.7395 125.964 95.4726 125.624 96.0876 125.288L97.6325 124.419L98.8969 123.701L97.5685 124.277L95.94 124.985Z" fill="#3EA2FF"/>
<path d="M48.708 113.001C48.6652 115.158 49.0288 117.303 49.7772 119.308C50.5255 121.314 51.6436 123.139 53.0652 124.677C54.4869 126.214 56.1835 127.433 58.0547 128.261C59.9259 129.088 61.9338 129.509 63.96 129.496C68.0859 129.477 72.0413 127.741 74.9825 124.659C77.9238 121.578 79.6181 117.394 79.704 113.001C79.748 110.846 79.3865 108.704 78.6407 106.7C77.895 104.696 76.7801 102.872 75.3618 101.335C73.9435 99.7973 72.2505 98.5779 70.3827 97.7484C68.5149 96.919 66.5101 96.4962 64.4864 96.5051C63.9688 96.5041 63.4515 96.532 62.9366 96.589C59.0934 97.0048 55.5254 98.9028 52.9048 101.926C50.2841 104.948 48.7915 108.887 48.708 113.001Z" fill="#3EA2FF"/>
<path opacity="0.3" d="M48.7474 112.817V113.546C49.2394 126.447 60.0634 128.983 60.0634 128.983C56.1274 127.411 54.0807 123.512 53.013 119.807C52.7882 119.017 52.7409 118.18 52.8747 117.366C53.0085 116.552 53.3197 115.783 53.7834 115.121C54.2471 114.458 54.8503 113.921 55.5446 113.552C56.2388 113.182 57.0046 112.992 57.7805 112.995H57.8395C57.7869 112.63 57.7639 112.26 57.7707 111.89C57.8092 110.021 58.532 108.242 59.7849 106.933C61.0379 105.624 62.7216 104.889 64.4766 104.884C65.3358 104.882 66.1867 105.062 66.9794 105.415C67.7722 105.768 68.4907 106.286 69.093 106.938C69.6952 107.591 70.1689 108.365 70.4864 109.215C70.8038 110.066 70.9585 110.975 70.9415 111.89C70.9319 112.261 70.8924 112.631 70.8234 112.995C71.5888 112.991 72.3446 113.177 73.0315 113.536C73.7183 113.896 74.3175 114.42 74.7819 115.068C75.2463 115.716 75.5633 116.47 75.7079 117.271C75.8526 118.071 75.8209 118.896 75.6155 119.682C74.6315 123.318 72.6635 127.096 68.8997 128.642C70.8016 127.937 72.5684 126.872 74.1149 125.498C76.8061 123.13 79.5269 119.21 79.7237 113.001C79.7657 110.847 79.4026 108.706 78.6556 106.704C77.9087 104.701 76.793 102.879 75.3744 101.343C73.9558 99.8073 72.2629 98.5894 70.3955 97.7613C68.5281 96.9331 66.524 96.5114 64.5012 96.5209C60.4063 96.5401 56.4776 98.2484 53.5401 101.287C50.6026 104.326 48.8848 108.458 48.7474 112.817Z" fill="black"/>
<path opacity="0.7" d="M57.746 111.895C57.7401 112.265 57.7614 112.634 57.81 113.001C58.0295 114.64 58.7977 116.139 59.973 117.222C61.1484 118.305 62.6517 118.9 64.206 118.896C65.7772 118.889 67.2964 118.296 68.4986 117.219C69.7008 116.141 70.5097 114.648 70.784 113.001C70.8562 112.637 70.8941 112.267 70.8972 111.895C70.9156 110.982 70.7624 110.073 70.4466 109.224C70.1309 108.374 69.659 107.601 69.0586 106.948C68.4582 106.295 67.7414 105.777 66.9503 105.423C66.1593 105.07 65.3099 104.888 64.452 104.889C62.6969 104.894 61.0132 105.63 59.7603 106.939C58.5074 108.248 57.7845 110.026 57.746 111.895Z" fill="black"/>
<path opacity="0.7" d="M64.6193 105.02C64.6035 105.764 64.7276 106.504 64.9842 107.196C65.2408 107.888 65.6247 108.518 66.1133 109.05C66.602 109.581 67.1855 110.004 67.8296 110.292C68.4738 110.579 69.1654 110.727 69.864 110.726C71.2927 110.721 72.6629 110.122 73.6823 109.056C74.7017 107.99 75.2895 106.541 75.3203 105.02C75.3354 104.274 75.2101 103.532 74.9518 102.839C74.6935 102.145 74.3075 101.513 73.8164 100.981C73.3253 100.449 72.7392 100.026 72.0925 99.7392C71.4458 99.452 70.7516 99.3055 70.051 99.3085C68.6257 99.3205 67.261 99.9238 66.2468 100.99C65.2325 102.057 64.6487 103.502 64.6193 105.02Z" fill="#FAFAFA"/>
<path opacity="0.7" d="M95.94 124.985C95.3004 125.257 94.5427 125.509 93.7063 125.844C93.2832 126.001 92.8404 126.179 92.3681 126.368L90.8921 126.845L89.2586 127.369L87.4776 127.846C86.2525 128.202 84.9143 128.459 83.5022 128.768C82.7987 128.93 82.0607 129.025 81.3128 129.161C80.565 129.297 79.7926 129.423 78.9955 129.512C71.5268 130.46 63.9731 130.352 56.5308 129.192C52.0953 128.521 47.7043 127.549 43.3846 126.284C41.141 125.629 38.868 124.89 36.595 124.047C35.4535 123.633 34.317 123.177 33.1805 122.71L32.3293 122.349H32.285H32.3096L32.472 122.092C29.6824 123.213 27.616 123.544 26.1301 123.528L25.9727 123.716C27.0846 124.24 28.167 124.801 29.2986 125.325L30.9714 126.053L31.8668 126.42C33.0673 126.887 34.258 127.337 35.4486 127.746C37.8266 128.567 40.1882 129.28 42.5334 129.884C47.017 131.051 51.573 131.875 56.1667 132.352C63.872 133.194 71.6511 132.841 79.2612 131.304C80.0681 131.157 80.8454 130.963 81.6031 130.78C82.3608 130.597 83.0791 130.424 83.8073 130.204C85.2193 129.774 86.5526 129.402 87.7679 128.93L89.5342 128.291L91.143 127.62L92.619 126.997C93.0815 126.792 93.5144 126.567 93.9228 126.368C94.7395 125.964 95.4726 125.624 96.0876 125.288L97.6325 124.419L98.8969 123.701L97.5685 124.277L95.94 124.985Z" fill="white"/>
<path d="M83.7532 92.6379C83.7532 92.6379 83.6843 92.8895 83.5318 93.3244C83.3175 93.9368 83.0661 94.5336 82.779 95.1112C82.3524 95.9837 81.8288 96.7982 81.2194 97.5373C80.4268 98.5186 79.4456 99.3071 78.3421 99.8495C77.2387 100.392 76.0387 100.676 74.8234 100.681C73.8384 100.701 72.8588 100.523 71.9353 100.157C71.3142 99.9167 70.7464 99.5421 70.2675 99.0569C69.9329 98.6901 69.8296 98.381 69.9231 98.1819C70.1297 97.7679 71.0596 97.8989 72.3831 97.8937C74.0113 97.9242 75.6263 97.5774 77.1161 96.8771C78.6872 96.0456 80.2029 95.1002 81.6523 94.0475C82.2723 93.6178 82.7987 93.2667 83.1726 93.0309C83.5465 92.7951 83.7532 92.6379 83.7532 92.6379Z" fill="#263238"/>
<path d="M95.261 103.558C95.261 103.558 95.1774 103.773 94.9855 104.155C94.8698 104.386 94.7382 104.606 94.5919 104.816C94.4048 105.103 94.1976 105.374 93.972 105.628C93.7011 105.941 93.4047 106.229 93.0864 106.487C92.7221 106.793 92.3336 107.065 91.9253 107.299C90.983 107.828 89.9573 108.168 88.8995 108.3C87.8379 108.412 86.7665 108.354 85.7211 108.127C85.2684 108.022 84.8242 107.878 84.3927 107.698C84.0161 107.548 83.6523 107.364 83.3054 107.148C82.0262 106.335 81.5244 105.455 81.7409 105.093C81.9573 104.732 82.8282 104.821 84.0287 104.968C84.3288 104.999 84.6535 105.046 85.0127 105.067C85.3718 105.088 85.7261 105.109 86.1049 105.141C86.9259 105.161 87.7474 105.13 88.5649 105.046C89.4308 104.941 90.2623 104.826 91.0249 104.7C91.4087 104.622 91.7924 104.569 92.1418 104.48C92.4911 104.391 92.8306 104.318 93.1258 104.234C93.421 104.15 93.7162 104.061 93.9769 103.983C94.2001 103.921 94.4201 103.848 94.6362 103.762L95.261 103.558Z" fill="#263238"/>
<path d="M101.386 116.852C101.386 116.852 101.214 116.973 100.894 117.161C100.439 117.425 99.9568 117.634 99.4578 117.785C98.7163 118.018 97.9481 118.142 97.1749 118.152C96.229 118.159 95.2884 118.001 94.3902 117.685C93.4982 117.358 92.6486 116.913 91.8613 116.359C91.2175 115.908 90.6333 115.367 90.1246 114.751C89.2685 113.703 89.0225 112.791 89.3177 112.487C89.6129 112.183 90.3902 112.435 91.4333 112.906L93.2143 113.719C93.8834 114.001 94.6067 114.305 95.3791 114.594C96.1516 114.882 96.8846 115.149 97.5734 115.427C98.2622 115.704 98.9068 115.951 99.4676 116.15C100.029 116.349 100.511 116.538 100.85 116.674C101.19 116.81 101.386 116.852 101.386 116.852Z" fill="#263238"/>
<path d="M45.5887 92.3026C45.5887 92.3026 45.8298 92.3969 46.2431 92.5961C46.6564 92.7952 47.2271 93.0886 47.906 93.4554C49.259 94.189 50.9269 95.1689 52.5013 95.8973C53.9186 96.5258 55.4297 96.8806 56.9638 96.9453C58.243 97.0396 59.2171 97.0291 59.5025 97.5688C59.6353 97.8308 59.5615 98.2081 59.2516 98.643C58.8063 99.2114 58.2417 99.6602 57.6034 99.953C56.6602 100.405 55.6411 100.649 54.6071 100.671C53.3124 100.707 52.0266 100.435 50.8433 99.8744C49.7031 99.3316 48.6937 98.5199 47.8913 97.5007C47.2831 96.721 46.7766 95.8573 46.3858 94.9331C46.1328 94.3197 45.9223 93.6875 45.756 93.0415C45.6379 92.5751 45.5887 92.3026 45.5887 92.3026Z" fill="#263238"/>
<path d="M33.948 101.986L34.5876 102.122C34.7844 102.175 35.0156 102.227 35.2912 102.274C35.5667 102.322 35.852 102.39 36.1817 102.426C36.5113 102.463 36.836 102.536 37.2001 102.568C37.5642 102.599 37.9283 102.641 38.3071 102.694C39.0697 102.756 39.8618 102.83 40.6933 102.929C41.5248 103.029 42.312 103.05 43.05 103.066C43.4141 103.066 43.7732 103.066 44.1078 103.066C44.4424 103.066 44.7622 103.066 45.0623 103.066C46.248 103.029 47.1631 103.034 47.4682 103.558C47.7732 104.082 47.3206 105.052 46.0266 105.969C45.6787 106.218 45.3078 106.429 44.9196 106.597C44.4782 106.803 44.0204 106.966 43.5518 107.085C42.4713 107.347 41.3582 107.421 40.2554 107.305C39.1554 107.165 38.0939 106.787 37.1362 106.194C36.7217 105.929 36.3313 105.624 35.9701 105.282C35.6439 104.979 35.3472 104.642 35.0845 104.276C34.8653 103.995 34.6709 103.694 34.504 103.375C34.3652 103.143 34.2482 102.897 34.1546 102.641C33.9923 102.222 33.948 101.986 33.948 101.986Z" fill="#263238"/>
<path d="M26.5975 113.886C26.5975 113.886 26.8189 113.818 27.1879 113.729C27.5569 113.64 28.0735 113.514 28.6639 113.367C29.2543 113.221 29.9284 113.048 30.6319 112.896C31.3671 112.717 32.1112 112.582 32.8607 112.492C34.4203 112.299 35.8127 112.057 36.9591 111.926C38.1054 111.795 38.9271 111.832 39.2616 112.346C39.5962 112.859 39.2124 113.771 38.1694 114.73C37.5586 115.274 36.8734 115.716 36.1374 116.04C35.2382 116.44 34.291 116.704 33.3232 116.826C32.3506 116.933 31.3679 116.846 30.4253 116.569C29.6522 116.342 28.9168 115.989 28.2457 115.521C27.785 115.205 27.3634 114.828 26.9911 114.4C26.7304 114.075 26.5975 113.886 26.5975 113.886Z" fill="#263238"/>
<path d="M64.944 84.2435C64.944 84.2435 64.9834 84.5003 65.0227 84.93C65.0621 85.3596 65.0965 85.978 65.1408 86.6592C65.2441 88.074 65.377 89.8032 65.5492 91.328C65.5492 91.4276 65.5492 91.5271 65.5492 91.6162L65.6033 91.8887C65.6426 92.0616 65.6574 92.2502 65.6968 92.4127C65.7764 92.739 65.8716 93.0609 65.9821 93.3768C66.0658 93.6965 66.2232 93.9637 66.3265 94.2572C66.4298 94.5506 66.5873 94.8074 66.73 95.0432C67.2712 96.0597 67.7681 96.8038 67.5762 97.3802C67.4926 97.6632 67.1728 97.857 66.7054 97.9042C66.0624 97.9172 65.4276 97.7491 64.8653 97.4169C64.4709 97.202 64.0997 96.9419 63.7583 96.6414C63.3681 96.2738 63.0197 95.8587 62.7202 95.4047C62.3813 94.8999 62.102 94.3526 61.8887 93.7751C61.7872 93.4713 61.7018 93.1616 61.6328 92.8476C61.5935 92.6852 61.5541 92.528 61.5197 92.3655C61.4852 92.2031 61.4803 92.0406 61.4606 91.8782C61.4311 91.5481 61.4114 91.2232 61.4065 90.9088C61.4139 90.6014 61.4419 90.295 61.4902 89.9918C61.5295 89.6984 61.5787 89.4102 61.6328 89.1325C61.687 88.8547 61.8001 88.6085 61.8887 88.3622C62.1976 87.4984 62.6326 86.692 63.1777 85.9727C63.5504 85.4995 63.9638 85.0644 64.4126 84.6732C64.5826 84.5201 64.7599 84.3767 64.944 84.2435Z" fill="#263238"/>
<path d="M95.2217 119.76C95.2217 119.76 96.4517 124.791 93.5685 125.571C90.6854 126.352 91.881 126.834 91.881 126.834L98.8575 123.785L95.2217 119.76Z" fill="#3EA2FF"/>
<path opacity="0.7" d="M95.2217 119.76C95.2217 119.76 96.4517 124.791 93.5685 125.571C90.6854 126.352 91.881 126.834 91.881 126.834L98.8575 123.785L95.2217 119.76Z" fill="white"/>
<path d="M98.8576 123.701C98.6509 123.879 97.0765 122.165 94.2328 119.121C92.806 117.601 91.0495 115.752 88.9733 113.671C86.897 111.591 84.4715 109.28 81.672 106.896C80.2796 105.717 78.779 104.538 77.18 103.401C75.5435 102.219 73.8266 101.168 72.0436 100.257C70.2346 99.2876 68.291 98.6347 66.2872 98.3235L65.5442 98.2396C65.2933 98.2396 65.0522 98.2396 64.8062 98.2396C64.3122 98.2468 63.8191 98.2888 63.3302 98.3654C62.272 98.5563 61.2316 98.8456 60.2208 99.23C58.0402 100.092 55.9468 101.185 53.9724 102.495C51.8549 103.886 49.8101 105.399 47.847 107.027C43.6743 110.511 39.7063 114.265 35.9652 118.267C34.9812 119.315 34.0513 120.321 33.1313 121.338L32.472 122.092C29.6824 123.213 27.616 123.544 26.1301 123.528C23.7931 123.528 22.8928 122.627 22.8928 122.627L24.9001 122.511C26.2769 122.433 27.5691 121.779 28.4966 120.693C28.8853 120.237 29.2838 119.781 29.6774 119.325C29.9087 119.058 30.1694 118.801 30.3761 118.534C31.3158 117.486 32.285 116.438 33.274 115.39C37.1292 111.261 41.2383 107.41 45.574 103.862C47.6642 102.159 49.844 100.585 52.1028 99.1462C54.3158 97.732 56.6604 96.566 59.099 95.6668C60.3238 95.2301 61.5837 94.9144 62.8628 94.7236C63.5153 94.6333 64.173 94.593 64.8308 94.6031C65.1654 94.6031 65.495 94.6031 65.8148 94.6397L66.7693 94.7707C69.1212 95.1849 71.3923 96.0118 73.49 97.2178C75.3792 98.2701 77.1886 99.4772 78.902 100.828C80.5404 102.102 82.0508 103.396 83.4383 104.69C85.9144 107.003 88.2759 109.452 90.5132 112.026C92.4812 114.3 94.095 116.333 95.3644 118.031C97.8785 121.469 99.0642 123.528 98.8576 123.701Z" fill="#263238"/>
<path d="M215.653 114.321C208.893 104.365 199.909 96.7148 190.306 92.8372C179.698 89.0696 169.061 91.632 158.695 100.446L158.463 100.142C168.938 91.2337 179.693 88.6504 190.443 92.4651C200.106 96.3846 209.169 104.066 215.968 114.101L215.653 114.321Z" fill="#3EA2FF"/>
<path d="M147.654 112.55L147.354 112.319C148.823 110.156 150.441 108.112 152.195 106.204L152.461 106.477C150.718 108.37 149.112 110.401 147.654 112.55Z" fill="#3EA2FF"/>
<path opacity="0.3" d="M197.504 114.201V114.049C197.506 114.099 197.506 114.15 197.504 114.201Z" fill="black"/>
<path d="M146.424 123.842C146.424 123.842 167.123 95.8554 180.992 96.5942C194.862 97.333 216.229 123.208 216.229 123.208C216.229 123.208 180.938 142.219 146.424 123.842Z" fill="#3EA2FF"/>
<path opacity="0.9" d="M146.424 123.842C146.424 123.842 167.123 95.8554 180.992 96.5942C194.862 97.333 216.229 123.208 216.229 123.208C216.229 123.208 180.938 142.219 146.424 123.842Z" fill="#FAFAFA"/>
<path d="M148.761 124.985C149.396 125.257 150.153 125.509 150.995 125.844C151.418 126.001 151.856 126.179 152.328 126.368L153.804 126.845L155.433 127.369L157.219 127.846C158.444 128.202 159.782 128.459 161.189 128.768C161.893 128.93 162.636 129.025 163.383 129.161C164.131 129.297 164.904 129.423 165.701 129.512C173.169 130.46 180.723 130.352 188.165 129.192C192.594 128.52 196.979 127.549 201.292 126.284C203.54 125.629 205.809 124.89 208.086 124.047C209.228 123.633 210.36 123.177 211.501 122.71L212.347 122.349H212.396H212.372L212.214 122.171C215.004 123.292 217.07 123.622 218.556 123.606L218.714 123.795C217.602 124.319 216.514 124.88 215.388 125.404L213.715 126.132L212.815 126.499C211.619 126.965 210.428 127.416 209.238 127.825C206.856 128.646 204.495 129.358 202.153 129.963C197.669 131.128 193.113 131.953 188.52 132.431C180.814 133.272 173.035 132.919 165.425 131.383C164.618 131.236 163.841 131.042 163.083 130.859C162.326 130.675 161.607 130.502 160.879 130.282C159.467 129.853 158.129 129.48 156.914 129.009L155.147 128.37L153.543 127.699L152.067 127.075C151.61 126.871 151.177 126.646 150.768 126.446C149.952 126.043 149.219 125.702 148.604 125.367L147.108 124.419L145.844 123.701L147.172 124.277L148.761 124.985Z" fill="#3EA2FF"/>
<path d="M195.959 113.001C196.001 115.155 195.639 117.297 194.893 119.3C194.146 121.303 193.031 123.126 191.613 124.663C190.195 126.201 188.503 127.42 186.636 128.25C184.769 129.08 182.764 129.504 180.741 129.496C176.615 129.477 172.66 127.741 169.719 124.659C166.777 121.578 165.083 117.394 164.997 113.001C164.953 110.846 165.315 108.704 166.06 106.701C166.805 104.698 167.92 102.874 169.338 101.337C170.755 99.7992 172.448 98.5797 174.315 97.7499C176.182 96.9202 178.187 96.4969 180.21 96.5051C180.729 96.5039 181.248 96.5319 181.765 96.589C185.604 97.0096 189.167 98.9097 191.784 101.932C194.401 104.954 195.891 108.891 195.973 113.001H195.959Z" fill="#3EA2FF"/>
<path opacity="0.3" d="M195.934 112.817V113.546C195.442 126.447 184.618 128.983 184.618 128.983C188.554 127.411 190.601 123.512 191.668 119.807C191.893 119.016 191.941 118.18 191.807 117.366C191.673 116.552 191.362 115.783 190.898 115.121C190.434 114.458 189.831 113.921 189.137 113.552C188.443 113.182 187.677 112.992 186.901 112.995H186.842C186.892 112.629 186.915 112.26 186.911 111.89C186.872 110.021 186.149 108.242 184.897 106.933C183.644 105.624 181.96 104.889 180.205 104.884C179.346 104.882 178.495 105.062 177.702 105.415C176.909 105.768 176.191 106.286 175.589 106.938C174.986 107.591 174.513 108.365 174.195 109.215C173.878 110.066 173.723 110.975 173.74 111.89C173.747 112.261 173.787 112.632 173.858 112.995C173.093 112.991 172.337 113.177 171.65 113.536C170.963 113.896 170.364 114.42 169.9 115.068C169.435 115.716 169.118 116.47 168.974 117.271C168.829 118.071 168.861 118.896 169.066 119.682C170.05 123.318 172.018 127.096 175.782 128.642C173.879 127.936 172.11 126.871 170.562 125.498C167.875 123.13 165.15 119.21 164.958 113.001C164.914 110.846 165.275 108.704 166.021 106.7C166.767 104.696 167.882 102.872 169.3 101.335C170.718 99.7973 172.411 98.5779 174.279 97.7484C176.147 96.919 178.152 96.4962 180.175 96.5051C184.274 96.5232 188.206 98.233 191.145 101.275C194.084 104.317 195.8 108.455 195.934 112.817Z" fill="black"/>
<path opacity="0.7" d="M186.96 111.895C186.966 112.265 186.945 112.635 186.896 113.001C186.677 114.64 185.908 116.139 184.733 117.222C183.558 118.305 182.054 118.9 180.5 118.896C178.929 118.89 177.41 118.296 176.207 117.219C175.005 116.141 174.196 114.648 173.922 113.001C173.85 112.637 173.812 112.267 173.809 111.895C173.79 110.98 173.944 110.071 174.261 109.22C174.577 108.37 175.051 107.595 175.653 106.942C176.255 106.289 176.973 105.771 177.766 105.419C178.559 105.066 179.41 104.886 180.269 104.889C182.021 104.898 183.701 105.636 184.951 106.944C186.201 108.253 186.922 110.029 186.96 111.895Z" fill="black"/>
<path opacity="0.7" d="M180.072 105.02C180.087 105.765 179.962 106.507 179.704 107.2C179.446 107.893 179.06 108.524 178.57 109.056C178.079 109.587 177.493 110.009 176.847 110.296C176.201 110.583 175.508 110.729 174.808 110.726C173.379 110.723 172.008 110.124 170.988 109.057C169.968 107.991 169.381 106.542 169.351 105.02C169.336 104.274 169.461 103.533 169.719 102.84C169.977 102.146 170.363 101.515 170.854 100.983C171.344 100.451 171.93 100.028 172.576 99.7407C173.222 99.4532 173.915 99.3062 174.616 99.3085C176.045 99.3136 177.416 99.9139 178.436 100.981C179.455 102.048 180.043 103.498 180.072 105.02Z" fill="#FAFAFA"/>
<path opacity="0.7" d="M148.761 124.985C149.396 125.257 150.153 125.509 150.995 125.844C151.418 126.001 151.856 126.179 152.328 126.368L153.804 126.845L155.433 127.369L157.219 127.846C158.444 128.202 159.782 128.459 161.189 128.768C161.893 128.93 162.636 129.025 163.383 129.161C164.131 129.297 164.904 129.423 165.701 129.512C173.169 130.46 180.723 130.352 188.165 129.192C192.594 128.52 196.979 127.549 201.292 126.284C203.54 125.629 205.809 124.89 208.086 124.047C209.228 123.633 210.36 123.177 211.501 122.71L212.347 122.349H212.396H212.372L212.214 122.171C215.004 123.292 217.07 123.622 218.556 123.606L218.714 123.795C217.602 124.319 216.514 124.88 215.388 125.404L213.715 126.132L212.815 126.499C211.619 126.965 210.428 127.416 209.238 127.825C206.856 128.646 204.495 129.358 202.153 129.963C197.669 131.128 193.113 131.953 188.52 132.431C180.814 133.272 173.035 132.919 165.425 131.383C164.618 131.236 163.841 131.042 163.083 130.859C162.326 130.675 161.607 130.502 160.879 130.282C159.467 129.853 158.129 129.48 156.914 129.009L155.147 128.37L153.543 127.699L152.067 127.075C151.61 126.871 151.177 126.646 150.768 126.446C149.952 126.043 149.219 125.702 148.604 125.367L147.108 124.419L145.844 123.701L147.172 124.277L148.761 124.985Z" fill="white"/>
<path d="M160.928 92.6379C160.928 92.6379 161.145 92.7637 161.519 92.9995C161.893 93.2353 162.419 93.5864 163.039 94.0161C164.488 95.0699 166.003 96.0153 167.575 96.8457C169.065 97.5464 170.68 97.8933 172.308 97.8622C173.627 97.8622 174.557 97.7365 174.768 98.1504C174.862 98.3495 174.768 98.6744 174.424 99.0255C173.945 99.5106 173.377 99.8853 172.756 100.126C171.831 100.492 170.85 100.67 169.863 100.65C168.648 100.643 167.448 100.358 166.345 99.8162C165.242 99.2738 164.26 98.4861 163.467 97.5059C162.861 96.7655 162.339 95.9511 161.912 95.0798C161.625 94.5022 161.374 93.9053 161.16 93.2929C160.997 92.8895 160.928 92.6379 160.928 92.6379Z" fill="#263238"/>
<path d="M149.42 103.558L150.006 103.762C150.222 103.848 150.442 103.921 150.665 103.983C150.926 104.061 151.197 104.166 151.516 104.234C151.836 104.302 152.156 104.412 152.5 104.48C152.845 104.548 153.233 104.622 153.617 104.7C154.395 104.826 155.221 104.941 156.077 105.046C156.895 105.13 157.716 105.161 158.537 105.141C158.921 105.109 159.29 105.114 159.634 105.067C159.979 105.02 160.303 104.999 160.618 104.968C161.819 104.821 162.675 104.695 162.906 105.093C163.137 105.492 162.621 106.335 161.342 107.148C160.995 107.364 160.631 107.548 160.254 107.698C159.823 107.878 159.379 108.022 158.926 108.127C157.881 108.354 156.809 108.412 155.748 108.3C154.688 108.167 153.661 107.828 152.717 107.299C152.311 107.064 151.924 106.792 151.561 106.487C151.242 106.229 150.946 105.941 150.675 105.628C150.449 105.374 150.242 105.103 150.055 104.816C149.907 104.608 149.775 104.387 149.661 104.155C149.504 103.752 149.42 103.558 149.42 103.558Z" fill="#263238"/>
<path d="M143.295 116.852C143.295 116.852 143.492 116.768 143.836 116.653C144.181 116.538 144.653 116.36 145.214 116.129C145.775 115.898 146.424 115.668 147.113 115.406C147.802 115.144 148.535 114.845 149.307 114.573C150.08 114.3 150.783 113.981 151.467 113.698L153.253 112.885C154.296 112.414 155.059 112.136 155.369 112.466C155.679 112.796 155.418 113.661 154.562 114.73C154.052 115.345 153.468 115.886 152.825 116.339C152.038 116.892 151.188 117.337 150.296 117.664C149.398 117.98 148.457 118.138 147.511 118.131C146.738 118.121 145.97 117.998 145.229 117.764C144.73 117.613 144.248 117.404 143.792 117.14C143.467 116.994 143.295 116.852 143.295 116.852Z" fill="#263238"/>
<path d="M199.093 92.3026C199.093 92.3026 199.044 92.5751 198.921 93.0415C198.748 93.6916 198.531 94.3274 198.271 94.9436C197.88 95.8678 197.374 96.7315 196.766 97.5112C195.97 98.5273 194.969 99.3387 193.838 99.8849C192.653 100.446 191.366 100.718 190.069 100.681C189.037 100.66 188.019 100.415 187.078 99.9635C186.44 99.6706 185.875 99.2219 185.43 98.6535C185.12 98.2186 185.046 97.8413 185.179 97.5793C185.459 97.0553 186.438 97.0553 187.718 96.9557C189.252 96.8911 190.763 96.5363 192.18 95.9077C193.755 95.1794 195.422 94.1995 196.775 93.4659C197.445 93.0991 198.025 92.8004 198.438 92.6065C198.852 92.4127 199.093 92.3026 199.093 92.3026Z" fill="#263238"/>
<path d="M210.753 101.986C210.753 101.986 210.689 102.222 210.527 102.646C210.431 102.902 210.314 103.147 210.177 103.38C210.006 103.695 209.81 103.995 209.592 104.276C209.331 104.623 209.041 104.943 208.726 105.235C208.365 105.577 207.975 105.882 207.56 106.147C206.6 106.739 205.537 107.117 204.436 107.258C203.335 107.374 202.223 107.299 201.144 107.038C200.676 106.919 200.218 106.756 199.777 106.55C199.388 106.381 199.018 106.171 198.67 105.921C197.376 105.004 196.933 103.998 197.223 103.511C197.513 103.024 198.443 102.987 199.634 103.018C199.934 103.018 200.249 103.018 200.588 103.018C200.928 103.018 201.282 103.018 201.646 103.018C202.384 103.018 203.171 102.971 204.003 102.882C204.834 102.793 205.622 102.709 206.389 102.646C206.763 102.594 207.147 102.578 207.496 102.521C207.845 102.463 208.195 102.432 208.515 102.379C208.834 102.327 209.13 102.269 209.405 102.227C209.681 102.185 209.897 102.128 210.109 102.075L210.753 101.986Z" fill="#263238"/>
<path d="M218.079 113.886C217.957 114.058 217.825 114.223 217.685 114.379C217.313 114.807 216.892 115.184 216.431 115.5C215.76 115.968 215.024 116.321 214.251 116.548C213.309 116.825 212.326 116.912 211.353 116.805C210.385 116.685 209.438 116.42 208.539 116.019C207.802 115.694 207.116 115.252 206.502 114.709C205.459 113.75 205.11 112.812 205.415 112.325C205.72 111.837 206.596 111.801 207.717 111.906C208.839 112.01 210.256 112.278 211.816 112.471C212.565 112.562 213.309 112.696 214.045 112.875C214.748 113.027 215.422 113.205 216.013 113.347C216.603 113.488 217.125 113.629 217.489 113.708C217.853 113.787 218.079 113.886 218.079 113.886Z" fill="#263238"/>
<path d="M179.718 84.2435C179.888 84.3745 180.052 84.5144 180.21 84.6627C180.657 85.0553 181.071 85.4902 181.445 85.9622C181.99 86.6815 182.425 87.4879 182.734 88.3517C182.822 88.598 182.906 88.8757 182.99 89.122C183.073 89.3682 183.093 89.6879 183.132 89.9813C183.178 90.2848 183.206 90.5911 183.216 90.8983C183.216 91.2127 183.191 91.5376 183.157 91.8677C183.157 92.0302 183.132 92.1926 183.103 92.355C183.073 92.5175 183.029 92.6747 182.99 92.8371C182.919 93.1512 182.832 93.4609 182.729 93.7646C182.519 94.3428 182.241 94.8904 181.902 95.3942C181.603 95.8482 181.254 96.2633 180.864 96.6309C180.521 96.9316 180.148 97.1917 179.752 97.4064C179.192 97.7387 178.558 97.9068 177.917 97.8937C177.45 97.8623 177.13 97.6684 177.046 97.3697C176.854 96.7933 177.351 96.0492 177.888 95.0327C178.035 94.7969 178.148 94.5087 178.296 94.2467C178.443 93.9847 178.557 93.686 178.64 93.3664C178.751 93.0504 178.846 92.7286 178.926 92.4022C178.965 92.2345 178.98 92.0459 179.019 91.8782L179.073 91.6057C179.073 91.5167 179.073 91.4171 179.098 91.3175C179.265 89.7979 179.398 88.0635 179.506 86.6487C179.55 85.9518 179.57 85.3544 179.619 84.9195C179.669 84.4846 179.718 84.2435 179.718 84.2435Z" fill="#263238"/>
<path d="M149.46 119.76C149.46 119.76 148.23 124.791 151.113 125.571C153.996 126.352 152.8 126.834 152.8 126.834L145.824 123.785L149.46 119.76Z" fill="#3EA2FF"/>
<path opacity="0.7" d="M149.46 119.76C149.46 119.76 148.23 124.791 151.113 125.571C153.996 126.352 152.8 126.834 152.8 126.834L145.824 123.785L149.46 119.76Z" fill="white"/>
<path d="M145.824 123.701C146.031 123.879 147.6 122.165 150.449 119.121C151.875 117.601 153.627 115.752 155.708 113.671C157.789 111.591 160.21 109.28 162.995 106.917C164.392 105.738 165.888 104.559 167.487 103.422C169.125 102.24 170.843 101.189 172.628 100.278C174.437 99.3085 176.381 98.6556 178.384 98.3443L179.127 98.2605C179.378 98.2605 179.619 98.2605 179.865 98.2605C180.359 98.2677 180.853 98.3097 181.341 98.3863C182.398 98.5766 183.437 98.8659 184.446 99.2509C186.629 100.111 188.724 101.205 190.699 102.515C192.817 103.907 194.861 105.42 196.825 107.048C200.993 110.528 204.956 114.278 208.692 118.277C209.676 119.325 210.61 120.331 211.526 121.348L212.214 122.113C214.227 123.003 216.377 123.49 218.556 123.549C220.888 123.549 221.794 122.647 221.794 122.647L219.781 122.532C218.406 122.453 217.115 121.8 216.19 120.714C215.801 120.258 215.403 119.802 215.009 119.346C214.778 119.079 214.542 118.822 214.31 118.555C213.371 117.507 212.401 116.459 211.412 115.411C207.557 111.282 203.448 107.431 199.112 103.883C197.021 102.179 194.84 100.604 192.579 99.167C190.368 97.752 188.025 96.5859 185.587 95.6877C184.363 95.251 183.103 94.9352 181.824 94.7445C181.171 94.6542 180.513 94.6139 179.856 94.6239C179.521 94.6239 179.191 94.6239 178.872 94.6606L177.917 94.7916C175.572 95.2042 173.308 96.0275 171.216 97.2282C169.327 98.2805 167.517 99.4875 165.804 100.839C164.161 102.112 162.655 103.406 161.268 104.7C158.79 107.012 156.429 109.461 154.193 112.036C152.225 114.311 150.611 116.344 149.342 118.041C146.798 121.468 145.632 123.528 145.824 123.701Z" fill="#263238"/>
<path d="M68.5356 137.325L68.4962 136.932C70.4249 136.712 72.2797 136.46 74.4002 136.109L74.4544 136.497C72.4618 136.827 70.4593 137.105 68.5356 137.325Z" fill="#3EA2FF"/>
<path d="M58.3315 137.665C37.3576 137.665 25.8349 130.371 25.7119 130.293L25.9038 129.957C26.0268 130.036 38.4055 137.864 60.8702 137.236V137.629C60.024 137.655 59.163 137.665 58.3315 137.665Z" fill="#3EA2FF"/>
<path d="M178.798 184.61V151.436C178.798 150.602 178.487 149.802 177.933 149.213C177.379 148.623 176.629 148.292 175.846 148.292H143.935L132.545 138.912C132.17 138.609 131.712 138.446 131.241 138.446C130.954 138.445 130.67 138.505 130.405 138.621C130.14 138.738 129.9 138.908 129.697 139.124C129.494 139.34 129.333 139.596 129.223 139.878C129.113 140.16 129.057 140.462 129.057 140.767V148.292H127.28C126.497 148.292 125.747 148.623 125.193 149.213C124.639 149.802 124.328 150.602 124.328 151.436V184.6C124.336 185.428 124.651 186.22 125.203 186.803C125.756 187.386 126.503 187.713 127.28 187.713H175.875C176.646 187.704 177.384 187.375 177.93 186.796C178.476 186.216 178.787 185.432 178.798 184.61Z" fill="#263238"/>
<path opacity="0.9" d="M175.86 148.318H143.935L135.044 140.982C129.396 150.388 125.952 161.916 124.338 173.748V184.616C124.346 185.444 124.66 186.236 125.213 186.819C125.766 187.401 126.512 187.728 127.29 187.728H175.885C176.659 187.72 177.398 187.389 177.945 186.806C178.491 186.223 178.801 185.434 178.808 184.61V151.436C178.801 150.608 178.488 149.815 177.936 149.232C177.384 148.648 176.638 148.32 175.86 148.318Z" fill="#FFD3B6"/>
<path d="M146.124 187.728L146.286 177.405C144.91 180.982 143.265 184.434 141.366 187.728H146.124Z" fill="#EA863E"/>
<path d="M124.338 156.487C129.293 152.295 135.959 149.02 144.968 148.318H143.935L132.545 138.939C132.17 138.636 131.712 138.472 131.241 138.472C130.954 138.472 130.67 138.531 130.405 138.647C130.14 138.764 129.9 138.935 129.697 139.15C129.494 139.366 129.333 139.622 129.223 139.904C129.113 140.186 129.057 140.488 129.057 140.794V148.318H127.28C126.497 148.318 125.747 148.65 125.193 149.239C124.639 149.829 124.328 150.628 124.328 151.462L124.338 156.487Z" fill="#263238"/>
<path d="M131.595 171.102C131.103 173.753 132.038 176.153 133.642 176.478C135.246 176.803 136.948 174.953 137.425 172.338C137.858 170.09 137.238 168.031 136.058 167.256C135.968 167.197 135.875 167.146 135.777 167.104L130.478 164.211C130.478 164.211 131.517 166.899 133.312 167.691C132.404 168.596 131.801 169.795 131.595 171.102Z" fill="#263238"/>
<path d="M129.681 157.446C129.897 157.436 130.107 157.373 130.296 157.263C131.928 156.225 133.768 155.616 135.664 155.483C137.561 155.351 139.459 155.701 141.204 156.503C141.49 156.667 141.825 156.705 142.137 156.606C142.448 156.508 142.711 156.283 142.867 155.979C143.011 155.665 143.035 155.303 142.933 154.971C142.831 154.638 142.611 154.361 142.321 154.198C140.215 153.201 137.916 152.753 135.615 152.893C133.314 153.032 131.077 153.754 129.091 154.999C128.841 155.134 128.641 155.356 128.526 155.628C128.411 155.901 128.387 156.207 128.458 156.496C128.53 156.785 128.692 157.039 128.918 157.216C129.144 157.393 129.421 157.481 129.701 157.467L129.681 157.446Z" fill="#263238"/>
<path d="M161.243 173.533C160.343 174.448 159.742 175.645 159.526 176.95C159.034 179.606 159.9 182.001 161.538 182.326C163.177 182.651 164.879 180.801 165.356 178.186C165.765 175.938 165.159 173.879 163.993 173.103L163.728 172.962L158.424 170.048C158.424 170.048 159.442 172.742 161.243 173.533Z" fill="#263238"/>
<path d="M161.784 158.002C161.456 158.011 161.145 158.157 160.916 158.407C160.687 158.658 160.559 158.994 160.559 159.343C160.575 159.688 160.717 160.013 160.955 160.248C161.194 160.482 161.509 160.607 161.834 160.596C165.676 160.795 170.793 163.823 172.899 167.25C173.027 167.44 173.196 167.594 173.391 167.701C173.637 167.844 173.922 167.893 174.198 167.84C174.474 167.787 174.725 167.635 174.908 167.409C175.092 167.183 175.198 166.897 175.208 166.599C175.219 166.3 175.133 166.007 174.965 165.767C172.362 161.638 166.458 158.185 161.784 158.002Z" fill="#263238"/>
<path d="M149.927 190.097H143.787V190.49H149.927V190.097Z" fill="#3EA2FF"/>
<path d="M139.979 190.49H126.105C124.913 190.487 123.771 189.981 122.929 189.084C122.087 188.186 121.614 186.969 121.613 185.7V180.942H121.982V185.7C121.982 186.865 122.416 187.983 123.189 188.807C123.962 189.631 125.011 190.095 126.105 190.097H139.979V190.49Z" fill="#3EA2FF"/>
<path d="M104.707 36.5594H98.5673V36.9524H104.707V36.5594Z" fill="#3EA2FF"/>
<path d="M126.882 46.112H126.513V41.3488C126.512 40.1832 126.076 39.0658 125.302 38.2416C124.529 37.4175 123.479 36.9538 122.385 36.9524H108.516V36.5594H122.385C123.577 36.5608 124.72 37.0659 125.563 37.9638C126.406 38.8616 126.881 40.079 126.882 41.3488V46.112Z" fill="#3EA2FF"/>
<path d="M95.7137 72.401L121.524 74.6123L123.561 69.7444C123.561 69.7444 123.94 68.8483 124.51 67.2763V42.3496C124.501 41.5222 124.186 40.7319 123.634 40.1502C123.081 39.5685 122.335 39.2423 121.558 39.2423H78.8676C81.672 50.0681 87.0348 62.6546 95.7137 72.401Z" fill="#263238"/>
<path d="M124.515 75.5188V61.6748C123.843 53.9856 122.162 46.4347 119.522 39.2423H72.9833C72.2004 39.2423 71.4495 39.5736 70.8959 40.1632C70.3423 40.7528 70.0313 41.5525 70.0313 42.3863V75.545C70.0313 76.3789 70.3423 77.1786 70.8959 77.7682C71.4495 78.3578 72.2004 78.689 72.9833 78.689H104.904L116.309 88.032C116.684 88.3349 117.142 88.4987 117.613 88.4983C117.899 88.499 118.183 88.4395 118.448 88.3231C118.713 88.2068 118.954 88.0359 119.157 87.8203C119.36 87.6046 119.521 87.3485 119.631 87.0665C119.741 86.7846 119.797 86.4823 119.797 86.177V78.6524H121.573C122.353 78.6496 123.1 78.3186 123.651 77.7315C124.202 77.1445 124.513 76.349 124.515 75.5188Z" fill="#FCCAC8"/>
<path d="M85.9229 66.6999C85.7753 69.3199 86.9413 71.5574 88.56 71.657C90.1787 71.7566 91.5956 69.7234 91.7432 67.0825C91.8908 64.4415 90.715 62.2564 89.0963 62.1621C87.4776 62.0678 86.0656 64.0904 85.9229 66.6999Z" fill="#263238"/>
<path d="M116.953 63.9698C115.335 63.8755 113.923 65.9034 113.77 68.5444C113.618 71.1853 114.798 73.3704 116.417 73.47C118.036 73.5695 119.453 71.5364 119.59 68.9269C119.728 66.3174 118.572 64.0694 116.953 63.9698Z" fill="#263238"/>
<path d="M108.063 81.22C106.229 77.2158 104.663 73.0781 103.379 68.8379L102.828 78.6524H104.939L108.063 81.22Z" fill="#EA817E"/>
<path d="M77.0571 53.7624C77.2927 53.8251 77.5393 53.8234 77.7741 53.7574C78.0089 53.6914 78.2243 53.5634 78.4002 53.3851C79.5452 51.8776 81.0095 50.6807 82.673 49.8928C84.3365 49.1049 86.1517 48.7483 87.9696 48.8525C88.3193 48.8403 88.6536 48.6962 88.9128 48.4458C89.172 48.1955 89.3392 47.8553 89.3847 47.4858C89.4302 47.1163 89.351 46.7416 89.1612 46.4286C88.9714 46.1155 88.6834 45.8845 88.3485 45.7766C86.0534 45.6179 83.7557 46.0404 81.6434 47.0095C79.5311 47.9786 77.6644 49.4667 76.1961 51.352C75.9572 51.6702 75.8402 52.0728 75.8685 52.479C75.8968 52.8853 76.0683 53.2651 76.3486 53.5423C76.5689 53.6645 76.8096 53.7393 77.0571 53.7624Z" fill="#263238"/>
<path d="M124.235 56.3404C124.302 56.5123 124.397 56.6702 124.515 56.8068V50.7598C122.58 48.3406 119.988 46.6198 117.096 45.8342C116.719 45.7571 116.328 45.8426 116.011 46.0721C115.693 46.3016 115.473 46.6561 115.401 47.0577C115.329 47.4594 115.409 47.8752 115.624 48.2137C115.84 48.5523 116.173 48.7858 116.55 48.8629C118.291 49.3811 119.894 50.3278 121.229 51.6266C122.564 52.9254 123.593 54.5401 124.235 56.3404Z" fill="#263238"/>
</svg>
